<svg xmlns="http://www.w3.org/2000/svg" xmlns:xlink="http://www.w3.org/1999/xlink" width="1080" zoomAndPan="magnify" viewBox="0 0 810 809.999993" height="1080" preserveAspectRatio="xMidYMid meet" version="1.0"><defs><clipPath id="d681817d58"><path d="M 95 112 L 733 112 L 733 731.722656 L 95 731.722656 Z M 95 112 " clip-rule="nonzero"/></clipPath><clipPath id="08a2914243"><path d="M 73.082031 78.472656 L 698 78.472656 L 698 703 L 73.082031 703 Z M 73.082031 78.472656 " clip-rule="nonzero"/></clipPath></defs><g clip-path="url(#d681817d58)"><path fill="#fc782d" d="M 605.902344 729.40625 C 588.628906 731.546875 570.824219 731.722656 553.195312 731.722656 C 518.652344 731.722656 484.285156 731.722656 449.738281 731.722656 C 389.019531 731.722656 328.121094 731.722656 267.398438 731.722656 C 264.550781 731.722656 261.878906 731.722656 259.03125 731.722656 C 189.40625 731.722656 95.742188 672.402344 95.742188 603.640625 L 124.410156 255.011719 C 124.410156 186.25 181.390625 129.777344 250.839844 129.777344 L 603.230469 112.855469 C 672.855469 112.855469 729.125 172 732.6875 291.53125 C 732.6875 342.304688 732.6875 393.074219 732.6875 443.667969 C 732.6875 475.375 732.6875 507.265625 732.6875 538.972656 C 732.6875 586.714844 736.605469 631.964844 707.046875 672.757812 C 695.648438 688.613281 680.691406 701.4375 663.773438 711.238281 C 645.613281 721.925781 626.023438 726.914062 605.902344 729.40625 Z M 605.902344 729.40625 " fill-opacity="1" fill-rule="nonzero"/></g><path fill="#ffffff" d="M 542.691406 691.640625 L 228.046875 691.640625 C 149.164062 691.640625 84.523438 626.976562 84.523438 548.058594 L 84.523438 233.28125 C 84.523438 154.363281 149.164062 89.695312 228.046875 89.695312 L 542.867188 89.695312 C 621.75 89.695312 686.390625 154.363281 686.390625 233.28125 L 686.390625 548.238281 C 686.210938 626.976562 621.75 691.640625 542.691406 691.640625 Z M 542.691406 691.640625 " fill-opacity="1" fill-rule="nonzero"/><g clip-path="url(#08a2914243)"><path fill="#fc782d" d="M 542.691406 702.863281 L 228.046875 702.863281 C 142.753906 702.863281 73.304688 633.390625 73.304688 548.058594 L 73.304688 233.28125 C 73.304688 147.949219 142.753906 78.472656 228.046875 78.472656 L 542.867188 78.472656 C 628.160156 78.472656 697.609375 147.949219 697.609375 233.28125 L 697.609375 548.238281 C 697.429688 633.390625 627.984375 702.863281 542.691406 702.863281 Z M 228.046875 100.917969 C 155.214844 100.917969 95.921875 160.242188 95.921875 233.101562 L 95.921875 548.058594 C 95.921875 620.917969 155.214844 680.242188 228.046875 680.242188 L 542.867188 680.242188 C 615.695312 680.242188 674.992188 620.917969 674.992188 548.058594 L 674.992188 233.28125 C 674.992188 160.417969 615.695312 101.097656 542.867188 101.097656 L 228.046875 101.097656 Z M 228.046875 100.917969 " fill-opacity="1" fill-rule="nonzero"/></g><path fill="#fc782d" d="M 454.726562 292.78125 L 454.726562 415.164062 C 454.726562 425.851562 454.191406 434.757812 453.300781 442.242188 C 452.410156 449.722656 450.273438 457.207031 447.246094 464.867188 C 441.902344 477.691406 433.179688 487.667969 420.890625 494.972656 C 408.605469 502.097656 393.824219 505.660156 376.375 505.660156 C 360.527344 505.660156 347.351562 503.167969 336.84375 498.179688 C 326.339844 493.191406 317.792969 485.175781 311.203125 473.949219 C 307.820312 468.070312 304.972656 461.125 302.832031 453.464844 C 300.695312 445.625 299.628906 438.324219 299.628906 431.375 C 299.628906 423.894531 301.765625 418.191406 305.859375 414.273438 C 309.957031 410.355469 315.296875 408.394531 321.710938 408.394531 C 327.941406 408.394531 332.75 410.175781 335.953125 413.738281 C 339.160156 417.300781 341.652344 423.003906 343.253906 430.664062 C 345.035156 438.855469 346.816406 445.449219 348.597656 450.257812 C 350.378906 455.066406 353.40625 459.34375 357.679688 462.90625 C 361.953125 466.46875 368.007812 468.25 375.839844 468.25 C 396.675781 468.25 407.179688 452.929688 407.179688 422.113281 L 407.179688 292.78125 C 407.179688 283.160156 409.316406 276.035156 413.414062 271.222656 C 417.6875 266.414062 423.386719 264.097656 430.507812 264.097656 C 437.808594 264.097656 443.683594 266.414062 447.957031 271.222656 C 452.589844 276.035156 454.726562 283.339844 454.726562 292.78125 Z M 454.726562 292.78125 " fill-opacity="1" fill-rule="nonzero"/></svg>